<svg width="148" height="35" viewBox="0 0 148 35" fill="none" xmlns="http://www.w3.org/2000/svg">
<path d="M28.0701 0H7.07007C3.20408 0 0.0700684 3.13401 0.0700684 7V28C0.0700684 31.866 3.20408 35 7.07007 35H28.0701C31.9361 35 35.0701 31.866 35.0701 28V7C35.0701 3.13401 31.9361 0 28.0701 0Z" fill="#F22735"/>
<path d="M55.2191 16.812C56.1881 16.302 56.8001 15.384 56.8001 14.194C56.8001 12.341 55.2701 11.1 52.2951 11.1H46.4811V23H52.6351C55.7631 23 57.3951 21.81 57.3951 19.753C57.3951 18.257 56.5451 17.237 55.2191 16.812ZM51.9551 13.174C53.2981 13.174 54.0291 13.633 54.0291 14.568C54.0291 15.503 53.2981 15.979 51.9551 15.979H49.2181V13.174H51.9551ZM52.4311 20.926H49.2181V17.985H52.4311C53.8591 17.985 54.6241 18.461 54.6241 19.464C54.6241 20.484 53.8591 20.926 52.4311 20.926ZM62.2171 20.79V18.036H67.7421V15.894H62.2171V13.31H68.4731V11.1H59.4801V23H68.6941V20.79H62.2171ZM74.7954 23.204C78.1954 23.204 79.8444 21.504 79.8444 19.515C79.8444 15.146 72.9254 16.659 72.9254 14.466C72.9254 13.718 73.5544 13.106 75.1864 13.106C76.2404 13.106 77.3794 13.412 78.4844 14.041L79.3344 11.95C78.2294 11.253 76.6994 10.896 75.2034 10.896C71.8204 10.896 70.1884 12.579 70.1884 14.602C70.1884 19.022 77.1074 17.492 77.1074 19.719C77.1074 20.45 76.4444 20.994 74.8124 20.994C73.3844 20.994 71.8884 20.484 70.8854 19.753L69.9504 21.827C71.0044 22.643 72.9084 23.204 74.7954 23.204ZM84.0252 23H86.7792V13.344H90.5872V11.1H80.2172V13.344H84.0252V23ZM100.793 23.204C104.193 23.204 105.842 21.504 105.842 19.515C105.842 15.146 98.9234 16.659 98.9234 14.466C98.9234 13.718 99.5524 13.106 101.184 13.106C102.238 13.106 103.377 13.412 104.482 14.041L105.332 11.95C104.227 11.253 102.697 10.896 101.201 10.896C97.8184 10.896 96.1864 12.579 96.1864 14.602C96.1864 19.022 103.105 17.492 103.105 19.719C103.105 20.45 102.442 20.994 100.81 20.994C99.3824 20.994 97.8864 20.484 96.8834 19.753L95.9484 21.827C97.0024 22.643 98.9064 23.204 100.793 23.204ZM115.884 11.1V15.792H110.478V11.1H107.724V23H110.478V18.121H115.884V23H118.638V11.1H115.884ZM127.217 23.204C130.957 23.204 133.728 20.603 133.728 17.05C133.728 13.497 130.957 10.896 127.217 10.896C123.46 10.896 120.706 13.514 120.706 17.05C120.706 20.586 123.46 23.204 127.217 23.204ZM127.217 20.858C125.092 20.858 123.494 19.311 123.494 17.05C123.494 14.789 125.092 13.242 127.217 13.242C129.342 13.242 130.94 14.789 130.94 17.05C130.94 19.311 129.342 20.858 127.217 20.858ZM140.948 11.1H135.797V23H138.551V19.719H140.948C144.127 19.719 146.116 18.07 146.116 15.418C146.116 12.749 144.127 11.1 140.948 11.1ZM140.795 17.475H138.551V13.344H140.795C142.478 13.344 143.328 14.109 143.328 15.418C143.328 16.71 142.478 17.475 140.795 17.475Z" fill="#F22735"/>
<path d="M22.3902 8.54137C22.5876 8.6693 22.755 8.83825 22.8811 9.03679C23.0072 9.23534 23.0891 9.45868 23.121 9.69171C23.2134 10.2636 23.2564 10.8441 23.3047 11.4204C23.3506 11.9689 23.3486 12.5221 23.4184 13.0671C23.5094 13.7916 23.6533 14.5096 23.7755 15.228C23.7585 15.2414 23.7404 15.2533 23.7207 15.2623C23.363 15.3618 23.0049 15.4576 22.6473 15.5571C21.8212 15.788 21.8944 15.6612 22.1075 16.492C22.171 16.7481 22.2978 16.8065 22.5439 16.7361C23.0544 16.584 23.5697 16.4552 24.093 16.3128L24.521 17.4367C24.505 17.4538 24.4882 17.4699 24.4698 17.4844C24.1249 17.6698 23.7863 17.8578 23.4386 18.0381C22.8482 18.3507 22.8064 18.2908 23.1645 18.9386C23.3645 19.3001 23.4029 19.3128 23.7522 19.1218C24.178 18.8942 24.6025 18.6686 25.0207 18.4423L25.7395 19.5802C25.4079 19.8264 25.0964 20.0608 24.7838 20.2902C24.1225 20.7756 24.1447 20.6681 24.632 21.3421C24.786 21.5534 24.9277 21.5636 25.1304 21.4105C25.5491 21.0853 25.9832 20.7749 26.4152 20.4586C26.8583 20.8911 27.2708 21.315 27.7035 21.7115C28.703 22.5792 29.7901 23.3394 30.948 23.9805C31.3593 24.2148 31.7126 24.5391 31.9817 24.9285C32.2507 25.318 32.4292 25.7632 32.5029 26.2308C32.5138 26.3371 32.4818 26.4429 32.4147 26.5261C31.9824 27.0143 31.414 27.3622 30.7825 27.525C30.0408 27.7101 29.268 27.7323 28.5169 27.5898C27.2905 27.3528 26.1125 26.9127 25.0308 26.2881C22.1767 24.7551 19.4991 22.9137 17.0467 20.7967C15.1076 19.1552 13.189 17.4899 11.2599 15.8392C10.0894 14.8366 8.90339 13.8547 7.75865 12.8254C6.83982 12.0082 6.05011 11.056 5.41745 10.0016C5.3915 9.97024 5.37211 9.93397 5.36063 9.89492C5.34915 9.85588 5.34613 9.81531 5.35099 9.7749C5.35585 9.7345 5.36877 9.69515 5.38917 9.65994C5.40958 9.62473 5.43676 9.59412 5.4694 9.56981C5.65385 9.39091 5.82628 9.20008 5.98541 8.99832C6.87815 7.76866 8.05574 6.77388 9.41778 6.10016C10.3609 5.66254 11.236 5.09075 12.0151 4.40229C12.0727 4.35178 12.1361 4.30841 12.2044 4.27365C12.2648 4.22965 12.3345 4.20013 12.408 4.18655C12.4815 4.17298 12.5574 4.17597 12.6295 4.19547C12.7017 4.21498 12.7679 4.2503 12.8246 4.29906C12.8812 4.34782 12.9262 4.40871 12.9563 4.47716C13.1019 4.75506 13.2114 5.05077 13.2806 5.35679C13.4426 6.06228 13.5914 6.77167 13.7082 7.48341C13.8731 8.46715 14.3674 9.36611 15.1099 10.0321C16.2137 11.0199 17.5212 11.7522 18.94 12.1774C19.5447 12.3822 19.7614 12.2047 19.7695 11.5766C19.7712 11.1222 19.8336 10.6703 19.9548 10.2323C20.1298 9.5728 20.52 8.99022 21.0635 8.57768C21.234 8.43006 21.4481 8.3422 21.6731 8.32638C21.8982 8.31057 22.1219 8.36796 22.3115 8.49027L22.3902 8.54137ZM7.94258 14.0654C10.5421 16.2949 13.1504 18.5144 15.7524 20.7395C17.9648 22.6805 20.3394 24.4279 22.8507 25.9625C24.1399 26.7951 25.5179 27.4815 26.9594 28.0082C27.8674 28.3962 28.8576 28.5507 29.8407 28.459C30.8239 28.3673 31.7691 28.0323 32.5896 27.4829C32.5375 27.6711 32.512 27.804 32.4658 27.924C32.2962 28.3612 32.0227 28.7505 31.6682 29.0574C31.3137 29.3643 30.8889 29.5797 30.4319 29.685C29.4855 29.9524 28.4954 30.0311 27.5186 29.9166C25.8814 29.7316 24.2768 29.3294 22.7458 28.7205C20.4685 27.8657 18.3335 26.6721 16.4128 25.1797C15.4366 24.4186 14.4816 23.633 13.4955 22.887C11.9959 21.8566 10.4234 20.9364 8.79022 20.1344C6.95831 19.1579 5.20373 18.043 3.54203 16.7987C2.68394 16.1645 2.05729 15.2662 1.75816 14.242C1.62217 13.877 1.60642 13.4779 1.71405 13.1036C1.82168 12.7292 2.04666 12.3991 2.35575 12.162C3.12428 11.5469 3.90813 10.9534 4.70395 10.339C5.5641 11.756 6.65931 13.0161 7.94258 14.0654Z" fill="white"/>
</svg>
