<svg width="15" height="15" viewBox="0 0 15 15" fill="none" xmlns="http://www.w3.org/2000/svg">
<path d="M13.719 14.7798L10.9609 12.0229C9.76643 12.9806 8.28098 13.502 6.75 13.501C4.96052 13.4986 3.24509 12.7868 1.97974 11.5215C0.714382 10.2561 0.00238121 8.54046 0 6.75098C0.00211666 4.96132 0.713865 3.24555 1.97925 1.97998C3.24463 0.71441 4.96035 0.00238178 6.75 0C8.53965 0.00238178 10.2554 0.71441 11.5208 1.97998C12.7861 3.24555 13.4979 4.96132 13.5 6.75098C13.5011 8.28214 12.9793 9.7677 12.021 10.9619L14.7791 13.7202C14.8487 13.7898 14.9039 13.8719 14.9417 13.9629C14.9794 14.0538 14.9988 14.1516 14.9988 14.25C14.9988 14.3484 14.9794 14.4457 14.9417 14.5366C14.9039 14.6276 14.8487 14.7102 14.7791 14.7798C14.7099 14.8498 14.6275 14.9056 14.5366 14.9434C14.4458 14.9811 14.3484 15.0003 14.25 15C14.1513 15.0003 14.0536 14.9811 13.9624 14.9434C13.8712 14.9056 13.7885 14.8498 13.719 14.7798ZM1.5 6.75098C1.50185 8.14289 2.05566 9.4771 3.03979 10.4614C4.02393 11.4457 5.35809 11.9998 6.75 12.002C8.11349 12.0029 9.42335 11.4715 10.4009 10.521C10.4179 10.499 10.4361 10.479 10.4561 10.458C10.4761 10.437 10.497 10.4209 10.519 10.4019C11.4689 9.42436 11.9999 8.11493 11.999 6.75195C11.9972 5.36014 11.4434 4.02567 10.4592 3.0415C9.47506 2.05734 8.14084 1.50381 6.74902 1.50195C5.35755 1.50407 4.02372 2.05758 3.03979 3.0415C2.05587 4.02542 1.50212 5.3595 1.5 6.75098Z" fill="black"/>
</svg>
