<svg width="17" height="17" viewBox="0 0 17 17" fill="none" xmlns="http://www.w3.org/2000/svg">
<path d="M12.7234 14.876C12.7232 14.5957 12.8061 14.3217 12.9617 14.0885C13.1173 13.8553 13.3385 13.6736 13.5974 13.5662C13.8563 13.4588 14.1413 13.4306 14.4162 13.4851C14.6912 13.5397 14.9437 13.6746 15.142 13.8727C15.3403 14.0708 15.4753 14.3233 15.5301 14.5982C15.5849 14.8731 15.5568 15.1581 15.4496 15.417C15.3424 15.676 15.1608 15.8974 14.9277 16.0531C14.6947 16.2089 14.4207 16.292 14.1404 16.292C13.765 16.2912 13.4052 16.1418 13.1397 15.8765C12.8741 15.6111 12.7245 15.2514 12.7234 14.876ZM4.9334 14.876C4.9334 14.596 5.01644 14.3222 5.17204 14.0893C5.32763 13.8565 5.54878 13.675 5.80752 13.5678C6.06626 13.4606 6.35097 13.4326 6.62564 13.4872C6.90032 13.5419 7.15263 13.6767 7.35066 13.8748C7.54869 14.0728 7.68355 14.3251 7.73819 14.5998C7.79282 14.8744 7.76478 15.1592 7.65761 15.4179C7.55044 15.6766 7.36894 15.8978 7.13608 16.0534C6.90322 16.209 6.62945 16.292 6.3494 16.292C5.97384 16.2918 5.61372 16.1425 5.34807 15.877C5.08242 15.6116 4.93393 15.2516 4.9334 14.876ZM4.7194 10.332L3.5354 4.41902C3.5354 4.40002 3.5274 4.38002 3.5244 4.36002L2.9344 1.41502H0.681396C0.498359 1.40813 0.325111 1.33058 0.198049 1.19865C0.0709873 1.06672 0 0.890684 0 0.707517C0 0.52435 0.0709873 0.348311 0.198049 0.216382C0.325111 0.0844519 0.498359 0.00689996 0.681396 1.73374e-05H3.5144C3.67898 -0.00113322 3.83884 0.0550143 3.96656 0.158831C4.09428 0.262648 4.1819 0.407667 4.2144 0.569017L4.8094 3.54102H16.2694C16.374 3.54052 16.4774 3.56316 16.5722 3.60732C16.667 3.65147 16.7508 3.71606 16.8177 3.79644C16.8846 3.87682 16.9329 3.971 16.9591 4.07224C16.9854 4.17348 16.9889 4.27927 16.9694 4.38202L15.8354 10.325C15.8358 10.327 15.8358 10.329 15.8354 10.331C15.7401 10.8133 15.4803 11.2475 15.1004 11.5594C14.7205 11.8713 14.244 12.0415 13.7524 12.041H6.8014C6.31007 12.0412 5.83389 11.8709 5.45404 11.5593C5.0742 11.2477 4.81521 10.8139 4.7194 10.332ZM6.1094 10.055C6.14152 10.2183 6.23006 10.3651 6.35949 10.4696C6.48893 10.5742 6.65102 10.6299 6.8174 10.627H13.7434C13.907 10.627 14.0655 10.5703 14.1921 10.4665C14.3186 10.3628 14.4053 10.2184 14.4374 10.058L15.4094 4.95802H5.0884L6.1094 10.055Z" fill="black"/>
</svg>
