<svg width="15" height="15" viewBox="0 0 15 15" fill="none" xmlns="http://www.w3.org/2000/svg">
<path d="M12.313 0H2.613C1.921 0.00988775 1.26029 0.289998 0.772045 0.780489C0.283797 1.27098 0.00671697 1.93296 0 2.625L0 12.45C0.0224158 13.1299 0.306702 13.7748 0.793456 14.25C1.28021 14.7252 1.93177 14.9939 2.612 15H7.836V9.675H6.343V7.425H7.836V6C7.83429 5.63603 7.90453 5.27531 8.04269 4.93857C8.18085 4.60184 8.38421 4.29573 8.64107 4.03785C8.89792 3.77997 9.20322 3.5754 9.5394 3.43591C9.87558 3.29641 10.236 3.22473 10.6 3.225H12.391V5.475H10.6C10.4443 5.48532 10.2976 5.55185 10.1872 5.66221C10.0768 5.77258 10.0103 5.91926 10 6.075V7.5H11.94V9.75H10.075V15H12.388C13.0798 14.9899 13.7403 14.7096 14.2283 14.2192C14.7163 13.7287 14.9933 13.0669 15 12.375V2.625C14.9641 1.92981 14.6676 1.27365 14.1697 0.787196C13.6717 0.300742 13.0088 0.0196871 12.313 0Z" fill="black"/>
</svg>
