<svg width="15" height="15" viewBox="0 0 15 15" fill="none" xmlns="http://www.w3.org/2000/svg">
<path d="M4.167 15C3.06217 14.9989 2.00289 14.5596 1.22166 13.7783C0.440421 12.9971 0.00105903 11.9378 0 10.833L0 4.167C0.00132321 3.06225 0.44077 2.00312 1.22195 1.22195C2.00312 0.44077 3.06225 0.00132321 4.167 0L10.833 0C11.9378 0.00132321 12.9969 0.44077 13.7781 1.22195C14.5592 2.00312 14.9987 3.06225 15 4.167V10.834C14.9987 11.9387 14.5592 12.9977 13.778 13.7787C12.9968 14.5597 11.9377 14.9989 10.833 15H4.167ZM3.333 7.5C3.3328 8.3242 3.57702 9.12994 4.03478 9.81533C4.49254 10.5007 5.14326 11.035 5.90466 11.3505C6.66607 11.6661 7.50394 11.7487 8.31233 11.5881C9.12071 11.4274 9.86329 11.0306 10.4462 10.4479C11.029 9.86514 11.426 9.12265 11.5869 8.31431C11.7477 7.50596 11.6653 6.66807 11.3499 5.90659C11.0345 5.14511 10.5004 4.49426 9.81517 4.03634C9.12988 3.57842 8.3242 3.334 7.5 3.334C6.39542 3.33532 5.33645 3.77463 4.5553 4.55559C3.77415 5.33656 3.33459 6.39542 3.333 7.5ZM11.667 2.5C11.6672 2.66467 11.7162 2.82558 11.8078 2.96241C11.8994 3.09925 12.0295 3.20586 12.1817 3.26878C12.3339 3.33171 12.5013 3.34812 12.6628 3.31594C12.8242 3.28377 12.9726 3.20446 13.089 3.08802C13.2055 2.97158 13.2848 2.82325 13.3169 2.66176C13.3491 2.50026 13.3327 2.33286 13.2698 2.18069C13.2069 2.02852 13.1002 1.89841 12.9634 1.8068C12.8266 1.7152 12.6657 1.6662 12.501 1.666C12.2798 1.666 12.0677 1.75387 11.9113 1.91027C11.7549 2.06668 11.667 2.27881 11.667 2.5ZM5 7.5C5 7.00555 5.14662 6.5222 5.42133 6.11107C5.69603 5.69995 6.08648 5.37952 6.54329 5.1903C7.00011 5.00108 7.50277 4.95157 7.98773 5.04804C8.47268 5.1445 8.91814 5.3826 9.26777 5.73223C9.6174 6.08186 9.8555 6.52732 9.95196 7.01227C10.0484 7.49723 9.99892 7.99989 9.8097 8.45671C9.62048 8.91352 9.30005 9.30397 8.88893 9.57867C8.4778 9.85338 7.99445 10 7.5 10C6.83696 10 6.20107 9.73661 5.73223 9.26777C5.26339 8.79893 5 8.16304 5 7.5Z" fill="black"/>
</svg>
