<svg width="15" height="12" viewBox="0 0 15 12" fill="none" xmlns="http://www.w3.org/2000/svg">
<path d="M15 1.4402C14.4391 1.69074 13.8426 1.85267 13.232 1.9202C13.8643 1.53719 14.3397 0.94166 14.573 0.240198C13.9704 0.593823 13.3098 0.837609 12.622 0.960198C12.2034 0.518173 11.6629 0.210411 11.0691 0.0759324C10.4754 -0.0585466 9.85503 -0.0136859 9.28679 0.204827C8.71855 0.423339 8.22799 0.805663 7.87731 1.30332C7.52663 1.80098 7.33162 2.39157 7.317 3.0002C7.30698 3.24181 7.32748 3.48372 7.378 3.7202C6.15674 3.66649 4.96059 3.35545 3.86786 2.80745C2.77513 2.25945 1.81046 1.48684 1.037 0.540198C0.76805 1.01697 0.621351 1.55292 0.61 2.1002C0.608924 2.59815 0.73075 3.08867 0.964674 3.52826C1.1986 3.96785 1.53739 4.34292 1.951 4.6202C1.4802 4.57229 1.02401 4.42942 0.61 4.2002V4.2602C0.617454 4.97168 0.870293 5.65877 1.32579 6.20537C1.7813 6.75197 2.41153 7.12457 3.11 7.2602C2.85092 7.32943 2.58496 7.36968 2.317 7.3802C2.11191 7.38723 1.90679 7.36705 1.707 7.3202C1.90051 7.92879 2.28239 8.46015 2.79752 8.8376C3.31265 9.21505 3.93439 9.41907 4.573 9.4202C3.48238 10.2885 2.12597 10.7546 0.732 10.7402C0.486467 10.7501 0.240645 10.7299 0 10.6802C1.41301 11.5497 3.04092 12.0069 4.7 12.0002C5.84613 12.018 6.98435 11.8076 8.04846 11.3815C9.11256 10.9553 10.0813 10.3218 10.8983 9.51782C11.7153 8.71382 12.3643 7.75539 12.8075 6.69828C13.2508 5.64116 13.4793 4.50647 13.48 3.3602V2.9402C14.0859 2.55194 14.6037 2.04095 15 1.4402Z" fill="black"/>
</svg>
