<svg width="15" height="17" viewBox="0 0 15 17" fill="none" xmlns="http://www.w3.org/2000/svg">
<path d="M13.333 15.832V14.165C13.333 13.502 13.0697 12.8663 12.6008 12.3975C12.132 11.9286 11.496 11.665 10.833 11.665H4.16699C3.50395 11.665 2.86801 11.9286 2.39917 12.3975C1.93033 12.8663 1.66699 13.502 1.66699 14.165V15.832C1.66699 16.053 1.57931 16.2647 1.4231 16.4209C1.26688 16.5771 1.05491 16.665 0.833984 16.665C0.724509 16.6652 0.616072 16.6439 0.514893 16.6021C0.413713 16.5602 0.321842 16.4988 0.244385 16.4214C0.166928 16.344 0.105401 16.252 0.0634766 16.1509C0.0215519 16.0497 -7.88855e-08 15.9415 0 15.832V14.165C0.00132371 13.0604 0.440718 12.0012 1.22192 11.2202C2.00313 10.4392 3.06233 10.0001 4.16699 9.99902H10.833C11.9377 10.0001 12.9969 10.4392 13.7781 11.2202C14.5593 12.0012 14.9987 13.0604 15 14.165V15.832C15 15.9415 14.9784 16.0497 14.9365 16.1509C14.8946 16.252 14.8331 16.344 14.7556 16.4214C14.6782 16.4988 14.5863 16.5602 14.4851 16.6021C14.3839 16.6439 14.2755 16.6652 14.166 16.665C13.9451 16.665 13.7331 16.5771 13.5769 16.4209C13.4207 16.2647 13.333 16.053 13.333 15.832ZM3.33301 4.16602C3.33433 3.06118 3.774 2.00224 4.55542 1.22119C5.33684 0.440144 6.39614 0.00079386 7.50098 0C8.60564 0.00132371 9.66454 0.440962 10.4456 1.22217C11.2266 2.00337 11.6659 3.06233 11.667 4.16699C11.6659 5.27156 11.2266 6.33077 10.4456 7.11182C9.66451 7.89286 8.60554 8.33195 7.50098 8.33301C6.39641 8.33195 5.33744 7.89286 4.5564 7.11182C3.77535 6.33077 3.33602 5.27156 3.33496 4.16699L3.33301 4.16602ZM4.99902 4.16602C4.99902 4.82906 5.26236 5.46475 5.7312 5.93359C6.20004 6.40243 6.83598 6.66602 7.49902 6.66602C8.16206 6.66602 8.79801 6.40243 9.26685 5.93359C9.73569 5.46475 9.99902 4.82906 9.99902 4.16602C9.99902 3.50297 9.73569 2.86728 9.26685 2.39844C8.79801 1.9296 8.16206 1.66602 7.49902 1.66602C6.83616 1.66655 6.20061 1.93041 5.73218 2.39941C5.26374 2.86841 5.00071 3.50412 5.00098 4.16699L4.99902 4.16602Z" fill="black"/>
</svg>
